<svg viewBox="0 0 711.124 305.895" xmlns="http://www.w3.org/2000/svg" width="711.124" height="305.895"><path fill="none" pointer-events="none" d="M0 0h711.124v305.895H0z"/><switch transform="translate(-68.873 -68.21) scale(2.22618)"><g><path class="st0" d="M146.9 126.1c-1.6 0-2.5.4-3.3 4.6l-.3 1.5c-1.6-3.5-5.4-6.1-10.3-6.1-9.5 0-16.4 9.2-16.4 18.2 0 8 5.3 12.3 11.6 12.3 4.3 0 8.4-2 11.2-6.2-1.1 5.8-.7 6.3 1.2 6.3 2.1 0 1.9-2.8 2.8-6.6 0 0 4.8-22.2 4.9-22.7.1-.5 0-.8-.3-1-.3-.2-.7-.3-1.1-.3zm-5.7 15.8c-1.2 6-6.5 11.2-12.6 11.2-4.4 0-8.1-3.2-8.1-8.9 0-6.9 4.6-14.6 12.2-14.6 5 0 8.1 2.9 9.5 7.5l-1 4.8zm187.6-15.8c-1.6 0-2.4.4-3.3 4.6l-.3 1.5c-1.6-3.5-5.4-6.1-10.3-6.1-9.5 0-16.4 9.2-16.4 18.2 0 8 5.3 12.3 11.6 12.3 4.3 0 8.4-2 11.2-6.2-1.1 5.8-.7 6.3 1.2 6.3 2.1 0 1.9-2.8 2.8-6.6 0 0 4.8-22.2 4.9-22.7.1-.5 0-.8-.3-1-.3-.2-.7-.3-1.1-.3zm-5.6 15.8c-1.2 6-6.5 11.2-12.6 11.2-4.4 0-8.1-3.2-8.1-8.9 0-6.9 4.6-14.6 12.2-14.6 5 0 8.1 2.9 9.5 7.5l-1 4.8zm-124.8-6c0 2.1-.9 5.5-1.8 8.9-.8 3-1.4 5.9-1.7 7-.4 1.8-.8 4.8-2.5 4.8-2.4 0-2.2-1.2-1.6-4.2.3-1.7 1.1-5.1 1.9-8.2.9-3 1.5-6 1.5-7.6 0-4.2-2.6-6.8-6.2-6.8-4.3 0-6.9 1.9-9.7 6.4l-3.9 18.5c-.3 1.5-1.2 1.9-2.2 1.9h-.4c-1 0-1.6-.4-1.3-1.9l3.3-15.6c1.2-5.5-1.3-9.3-5.8-9.3-4.2 0-6.9 1.9-9.7 6.4l-3.9 18.5c-.3 1.5-1.2 1.9-2.2 1.9h-.4c-1 0-1.6-.4-1.3-1.9l6-27.8s.1-.7 1-.7c1.5 0 2.7 1.2 2.1 4.7l-.1.2c2.3-3.2 5.8-4.9 9.2-4.9 4.6 0 7.8 2.5 9 6.3 2.3-3.6 6-6.3 11.1-6.3 5.6-.1 9.6 4.1 9.6 9.7zm22.7-9.8c-10.3 0-18.2 8.1-18.2 18.6 0 6.8 4.4 11.8 12.6 11.8 4.7 0 8.1-1.2 10.6-3.8 1-1 1.3-1.6 1.3-2.6 0-.6-.2-1.1-.6-1.4-.7-.6-1.7-.2-2.2.4-2.3 2.5-5 3.9-9 3.9-5.7 0-8.7-3.5-8.7-8.6 0-.6.1-1.3.1-1.9 2.9.3 5.3.4 7.6.4 13 0 16.8-3.5 16.8-9.2.1-4.5-3.8-7.6-10.3-7.6zm-6.8 13.5c-1.8 0-4-.1-6.4-.4 2-5.5 7-9.7 13.1-9.7 4.4 0 6.5 2.1 6.5 4.3 0 3-2.8 5.8-13.2 5.8zm40-10.7c0 .9-.2 1.4-.6 1.8-.5.4-1.2.5-1.6.2-.8-.6-1.8-1-3.2-1-4.7 0-7.8 6-9.5 14.1l-2.2 10.7c-.3 1.4-.9 1.9-1.8 1.9h-.5c-1 0-1.9-.4-1.6-1.9l5.9-27.5s.2-1.1 1-1.1c1.5 0 2.8 1.3 2.1 4.7l-.2 1.2c2-3.8 4.6-5.8 8.1-5.8 2.1-.1 4 1 4.1 2.7zm9.3-.9l-4.7 21.9c-.6 2.6-1 6.6-2.7 6.6-.3 0-.9 0-1.1-.1-1.9-.4-.9-2.7-.1-6.5l4.7-22c.3-1.4.9-1.9 1.8-1.9h.5c1 .1 1.9.5 1.6 2zm2.4-8.7c0 1.6-.9 3.1-2.8 3.1-1.8 0-2.7-.7-2.7-2 0-1.6.9-3.1 2.8-3.1 1.7 0 2.7.7 2.7 2zm27.5 10.5c1.7 1.7 2.4 3.6 2.4 5 0 1.3-.7 2.1-1.5 2.3-1.5.3-1.6-.8-1.7-1.2-1.1-3.6-4.3-6.1-9.1-6.1-7.4 0-12.5 6.6-12.5 13.1 0 6 3.9 10.1 10 10.1 4.1 0 6.9-1.9 8.8-4.6.2-.3.9-1 1.9-.5.5.3 1 .8 1 1.6 0 .9-.6 2-1.9 3.3-2 2-5.7 3.9-10.1 3.9-7.6 0-13.7-5-13.7-13.4 0-8.8 7.2-16.9 16.4-16.9 4.7-.3 8 1.4 10 3.4zm-160.6-23.1c3-2 3.5-3.7 3.5-5.1 0-2.1-1.7-3.6-3.5-3.7-1.1 0-2.2.5-3 1.2-1.6 1.4-3.8 2.3-6.3 2.3-3.6 0-5.6-1.5-6-4.3 1.7.1 3.2.1 4.7.1 12.9 0 16.7-3.6 16.7-9.6 0-5.5-4.2-9.1-12.2-9.1-10.2 0-18.3 7.2-18.3 17.8 0 7.3 4.6 12.8 15 12.8 4.2.1 7.3-1 9.4-2.4zm-6.6-21c2.4 0 3.6 1.1 3.6 2.4 0 1.7-2 2.9-8.5 2.9-.8 0-1.6 0-2.6-.1 1.5-3 4.2-5.2 7.5-5.2zm45.8 23.5c4.3 0 7.3-1.1 9.4-2.5 3-2 3.5-3.7 3.5-5.1 0-2.1-1.7-3.6-3.5-3.7-1.1 0-2.2.5-3 1.2-1.6 1.4-3.8 2.3-6.3 2.3-3.6 0-5.6-1.5-6-4.3 1.7.1 3.2.1 4.7.1 12.9 0 16.7-3.6 16.7-9.6 0-5.5-4.2-9.1-12.2-9.1-10.2 0-18.3 7.2-18.3 17.8 0 7.4 4.6 12.9 15 12.9zm2.8-23.5c2.4 0 3.6 1.1 3.6 2.4 0 1.7-2 2.9-8.5 2.9-.8 0-1.6 0-2.6-.1 1.5-3 4.2-5.2 7.5-5.2zm-34.1 14.4l5.9-27.6c.8-4.1 3.3-5.4 6.3-5.4 3.1 0 5.8 1.2 4.9 5.4l-6 28c-.6 2.8-.3 4.3 1 5 .6.3.9 1.1.1 1.8-.8.9-2.4 1.8-5.3 1.8-6.6 0-7.9-4-6.9-9zm49.1-4.2c0-9.3 7.3-17.2 16.7-17.2 5 0 8.4 1.5 10.5 3.6 1.4 1.4 2 3 2 4.5 0 2.8-1.2 4-2.7 4.6-1.7.7-4 .2-4.8-1.3-.9-1.6-2.4-2.7-4.8-2.7-4.1 0-6.8 3.6-6.8 7.5 0 3.1 2 5.4 5.6 5.4 1.9 0 3.5-.7 4.7-2.1.9-1 2.1-1.2 3.3-.7 1.4.5 2.5 1.9 2.5 4 0 1.5-.7 2.9-2 4.3-2 1.9-5.3 3.3-9.5 3.3-8.9.1-14.7-4.8-14.7-13.2zm49.6 10.9c-1.5 1.6-4 2.4-7.2 2.4-7.5 0-10.5-4.3-9-11.4l2.2-10.6h-.6c-2.5 0-4.1-.9-3.9-3 .1-.9.4-3.2 1.5-4.4.8-.7 1.6-1.1 3.9-1.1h1l.2-.9c1.1-5.1 4.3-7.5 7.7-7.5 4.9 0 4.3 2.7 4.1 3.5-.2.8-1 4.9-1 4.9h3.3c2.7 0 4.1 1.2 4.1 3.1 0 .9-.4 3.2-1.5 4.3-.8.7-1.6 1.1-3.9 1.1h-4l-2.1 10.1c-.5 2.5.4 3.6 2.1 3.6.8 0 1.7-.3 2.4-.7.8-.5 1.8-.3 2.2.7.2.5.4 1 .4 1.7-.1 1.7-.7 3.1-1.9 4.2zm5.2-3.2s4.7-22 5-23.1c.4-1.5 2.6-1.9 3.5-1.9 2.9 0 5.6 1.5 6 5.5 1.6-3.6 4-6.7 8.1-6.7 3.1 0 5.6 1.9 5.7 5 .1 3.4-1.6 5.4-3.1 6.3-.9.6-1.8.8-2.6.2-.8-.7-2.1-1.4-3.6-1.4-3.2 0-5.3 4.2-6.3 9l-1.5 7c-.8 4.1-2.4 5.5-6.3 5.5-3.6.1-5.8-1.2-4.9-5.4zm34.4-33c.2-3.1 2.5-5.2 6.1-5.2 3.7 0 5.9 2.2 5.9 5 0 3.5-2.9 5.7-6.2 5.7-3.8-.1-6-3-5.8-5.5zm-6 29.7l3.3-15.8c.8-4.1 3.4-5.8 6.5-5.8s5.8 1.2 4.9 5.4l-3.6 16.6c-.6 2.8-.3 4.3 1 5 .6.3.9 1.1.1 1.8-.8.9-2.4 1.8-5.3 1.8-6.6 0-8-4-6.9-9zm25.5 8.8c-2.4 0-7.2.3-6-5.5 1-4.8 3.6-16.5 3.6-16.5h-1.1c-2.5 0-4-1.2-4-3 0-.9.3-3.5 1.1-4.4.9-.9 2.1-1.1 4.3-1.1h1.4v-.4c1.9-9 6.9-11.5 12.6-11.5 3.2 0 5.5.8 6.8 2.1.8.8 1.2 1.9 1.2 3 0 1.2-.3 2.5-1 3.2-.2.2-1.2 1.3-2.8.6-.8-.3-1.6-.6-2.6-.6-1.8 0-2.9.8-3.5 3.1v.4h2.7c2.6 0 4.1 1.2 4.1 3.1 0 .9-.5 3.2-1.6 4.3-.7.7-1.6 1.1-3.8 1.1h-2.7l-3.6 16.5c-.7 4.3-2.1 5.6-5.1 5.6zm52-24.8c-.2 1.7-.7 2.9-2.3 5.2l-13.7 21.6c-3.5 5.5-6.8 9.2-12.3 9.2-2.9 0-4.9-.8-6.3-2-1.2-1-2.5-3.3-1.3-6 1-2 2.7-.7 4.7-.6 2 0 3.8-.9 6.3-4.6l-3.6-17.5c-.4-2.9-1.2-3.8-2.1-5-.3-.5-1.9-2.1-.6-3.9.9-1.2 2.5-2 5.4-2 3.1 0 5.3 1.1 6.4 4.8.4 1.4 1.6 12.7 1.6 12.7l8.8-15.4c.7-1.2 1.7-2.1 3.7-2.1 2.5-.1 5.8 2.1 5.3 5.6z" fill="#fff"/><linearGradient id="a" gradientUnits="userSpaceOnUse" x1="36.243" y1="164.116" x2="78.777" y2="58.84"><stop offset="0" stop-color="#d7df38"/><stop offset="1" stop-color="#35bdd1"/></linearGradient><path class="st1" d="M68.4 76.4c5.5 0 8.3 2.7 8.3 5.4 0 3.9-3.9 7.2-18.2 7.2-2.1 0-4.5-.1-7.1-.3 3-7 9.3-12.3 17-12.3zm20.6 5C89 91.8 82.4 98 59.9 98c-3.1 0-6.5-.2-10.4-.4v.3c0 7.1 4.4 11.4 12.4 11.4 5.6 0 9.4-2.1 12.8-5.1.9-.9 2.2-1.5 3.6-1.5 1.5 0 2.9.7 3.8 1.7l17.5-22.9 4.1-5.4-14.8 3.4c0 .7.1 1.3.1 1.9zM69 66.6c5.1 0 9.3 1 12.5 2.7l13-38.3-40 9.2L42 80.9c5.7-8.9 15.6-14.3 27-14.3zM37.1 98.3c0-.5 0-.9.1-1.4l-5.8 19 11.5-2.5c-3.9-3.8-5.8-9.1-5.8-15.1zm11 18.7l-13.8 50.1 37.3-48.9c-2.9 1-6.1 1.6-10 1.6-5.4 0-9.9-1-13.5-2.8z" fill="url(&quot;#a&quot;)"/></g></switch></svg>